<svg
  xmlns="http://www.w3.org/2000/svg"
  width="80"
  height="80"
  viewBox="0 0 80 80"
  fill="none"
  stroke="white"
  stroke-width=".5"
  stroke-linecap="round"
  stroke-linejoin="round"
>
  <rect x="2" y="2" width="72" height="72" rx="1" ry="1" />
  
  <line x1="10" y1="2" x2="10" y2="74" />
  <line x1="18" y1="2" x2="18" y2="74" />
  <line x1="26" y1="2" x2="26" y2="74" />
  <line x1="34" y1="2" x2="34" y2="74" />
  <line x1="42" y1="2" x2="42" y2="74" />
  <line x1="50" y1="2" x2="50" y2="74" />
  <line x1="58" y1="2" x2="58" y2="74" />
  <line x1="66" y1="2" x2="66" y2="74" />
  
  <line x1="2" y1="10" x2="74" y2="10" />
  <line x1="2" y1="18" x2="74" y2="18" />
  <line x1="2" y1="26" x2="74" y2="26" />
  <line x1="2" y1="34" x2="74" y2="34" />
  <line x1="2" y1="42" x2="74" y2="42" />
  <line x1="2" y1="50" x2="74" y2="50" />
  <line x1="2" y1="58" x2="74" y2="58" />
  <line x1="2" y1="66" x2="74" y2="66" />
</svg>
